<?xml version="1.0" standalone="no"?>
<!DOCTYPE svg PUBLIC "-//W3C//DTD SVG 20010904//EN"
 "http://www.w3.org/TR/2001/REC-SVG-20010904/DTD/svg10.dtd">
<svg version="1.0" xmlns="http://www.w3.org/2000/svg"
 width="600.000000pt" height="440.000000pt" viewBox="0 0 600.000000 440.000000"
 preserveAspectRatio="xMidYMid meet">
<metadata>
Created by potrace 1.16, written by Peter Selinger 2001-2019
</metadata>
<g transform="translate(0.000000,440.000000) scale(0.100000,-0.100000)"
fill="#000000" stroke="none">
<path d="M2911 4389 c-75 -30 -121 -97 -121 -175 0 -67 25 -109 99 -171 75
-62 230 -167 237 -160 12 12 36 251 32 319 -4 62 -10 85 -31 116 -43 67 -145
100 -216 71z m120 -118 c32 -33 36 -58 14 -100 -38 -75 -155 -43 -155 43 0 26
7 40 31 60 40 34 74 33 110 -3z"/>
<path d="M3610 4150 c0 -5 16 -10 36 -10 21 0 33 4 29 10 -3 6 -19 10 -36 10
-16 0 -29 -4 -29 -10z"/>
<path d="M3515 4134 c-26 -12 -27 -14 -5 -9 14 2 31 5 38 5 6 0 12 5 12 10 0
13 -9 12 -45 -6z"/>
<path d="M3726 4132 c17 -15 64 -32 64 -23 0 4 -11 13 -25 19 -30 14 -54 16
-39 4z"/>
<path d="M3409 4080 c-31 -25 -12 -26 21 0 14 11 20 20 14 20 -7 0 -22 -9 -35
-20z"/>
<path d="M3850 4055 c13 -14 26 -23 28 -20 7 7 -29 45 -41 45 -6 0 0 -11 13
-25z"/>
<path d="M3320 4005 c-13 -14 -19 -25 -13 -25 5 0 20 11 33 25 13 14 19 25 13
25 -5 0 -20 -11 -33 -25z"/>
<path d="M3910 3988 c0 -14 39 -68 40 -55 0 11 -29 67 -35 67 -3 0 -5 -6 -5
-12z"/>
<path d="M3253 3928 c-18 -24 -24 -38 -16 -38 11 1 46 50 35 50 -5 0 -14 -6
-19 -12z"/>
<path d="M3964 3870 c3 -14 6 -31 6 -37 0 -7 5 -13 10 -13 12 0 2 50 -13 65
-6 7 -8 2 -3 -15z"/>
<path d="M3115 3818 c-21 -25 -25 -38 -21 -62 8 -39 33 -64 72 -72 44 -9 94
35 94 82 0 80 -93 114 -145 52z m110 -3 c30 -30 31 -54 4 -89 -14 -17 -30 -26
-50 -26 -65 0 -93 80 -43 119 35 27 59 26 89 -4z"/>
<path d="M3980 3734 c0 -21 4 -33 10 -29 6 3 10 19 10 36 0 16 -4 29 -10 29
-5 0 -10 -16 -10 -36z"/>
<path d="M3967 3623 c-5 -26 -2 -42 7 -32 9 11 15 59 7 59 -5 0 -11 -12 -14
-27z"/>
<path d="M3922 3515 c-7 -14 -12 -29 -12 -33 1 -10 40 38 40 49 0 18 -17 8
-28 -16z"/>
<path d="M3850 3415 c-13 -14 -19 -25 -13 -25 5 0 20 11 33 25 13 14 19 25 13
25 -5 0 -20 -11 -33 -25z"/>
<path d="M3764 3336 c-16 -14 -24 -25 -19 -25 15 -1 61 37 54 44 -4 3 -20 -5
-35 -19z"/>
<path d="M2057 3316 c-116 -49 -186 -119 -230 -229 -32 -80 -29 -204 6 -280
50 -109 201 -245 481 -431 148 -99 192 -124 202 -114 17 18 64 452 64 599 0
200 -28 287 -122 375 -74 69 -144 97 -253 101 -78 3 -98 0 -148 -21z m200
-201 c50 -21 72 -42 94 -90 54 -117 -27 -245 -155 -245 -96 0 -165 60 -174
150 -6 67 2 94 44 140 52 58 121 74 191 45z"/>
<path d="M3659 3270 c-13 -10 -20 -19 -16 -20 11 0 67 29 67 35 0 12 -30 3
-51 -15z"/>
<path d="M3563 3228 c-13 -6 -23 -15 -23 -20 0 -5 14 -2 30 7 45 23 38 35 -7
13z"/>
<path d="M3459 3161 c-13 -11 -22 -22 -19 -24 3 -3 19 6 35 19 17 13 25 24 19
24 -7 0 -22 -9 -35 -19z"/>
<path d="M3375 3080 c-27 -30 -12 -34 15 -5 13 14 19 25 13 25 -5 0 -18 -9
-28 -20z"/>
<path d="M3304 2986 c-9 -15 -14 -29 -12 -32 3 -2 13 7 22 22 10 14 15 28 13
31 -3 2 -13 -7 -23 -21z"/>
<path d="M230 2959 c-107 -48 -160 -151 -139 -266 12 -65 48 -112 142 -189 86
-70 269 -194 286 -194 12 0 16 15 30 115 16 111 24 286 17 348 -20 158 -190
252 -336 186z m156 -128 c93 -57 52 -201 -58 -201 -57 0 -108 51 -108 108 0
88 90 139 166 93z"/>
<path d="M3245 2881 c-8 -17 -12 -31 -7 -31 10 0 35 50 28 57 -2 3 -12 -9 -21
-26z"/>
<path d="M3201 2787 c-16 -41 -13 -57 5 -24 8 16 13 34 11 40 -3 7 -10 -1 -16
-16z"/>
<path d="M3156 2668 c-10 -38 -6 -45 9 -18 17 29 18 40 6 40 -5 0 -11 -10 -15
-22z"/>
<path d="M4553 2582 c-33 -3 -33 -4 -33 -57 l0 -54 47 -3 47 -3 14 -49 c8 -26
10 -52 5 -56 -6 -5 -1118 -205 -1242 -223 -9 -1 -25 31 -47 98 -40 118 -41
130 -10 150 19 13 169 45 208 45 17 0 28 39 17 63 -19 43 -45 47 -186 32 -70
-8 -156 -15 -191 -15 -69 0 -67 -2 -44 59 3 9 1 12 -6 8 -6 -4 -13 -20 -17
-36 -6 -28 -8 -29 -77 -33 -62 -3 -73 -7 -94 -31 -28 -32 -31 -78 -8 -101 8
-9 33 -19 55 -22 37 -6 40 -9 34 -33 l-6 -26 18 22 18 22 69 -17 70 -18 34
-105 35 -105 -118 -189 c-65 -105 -122 -194 -126 -199 -4 -5 -33 0 -66 12
-208 77 -439 68 -626 -23 -209 -102 -369 -298 -424 -521 -26 -105 -23 -287 5
-388 79 -275 294 -486 567 -556 107 -27 273 -27 381 0 201 51 366 173 476 350
l42 67 165 -43 c194 -51 257 -55 322 -21 122 65 145 237 44 326 l-34 29 425
554 c234 304 428 552 432 551 5 -1 80 -246 106 -349 4 -15 -1 -24 -17 -31 -12
-6 -50 -32 -84 -57 -124 -94 -229 -251 -275 -412 -32 -112 -32 -296 0 -408 79
-276 293 -486 567 -556 107 -27 273 -27 381 0 157 39 322 144 420 268 55 70
128 215 151 302 24 89 24 291 0 380 -25 94 -97 235 -160 311 -185 223 -498
328 -782 260 -44 -11 -81 -18 -82 -17 -2 1 -48 160 -103 352 -56 192 -103 357
-106 367 -5 16 9 17 199 17 192 0 206 -1 231 -21 34 -27 36 -77 4 -106 -13
-11 -61 -41 -108 -68 -120 -69 -114 -58 -79 -126 l30 -60 41 23 c22 13 83 50
136 83 78 49 100 68 120 105 51 96 12 208 -89 257 -42 20 -61 21 -344 25 -165
2 -315 2 -332 0z m642 -23 c52 -15 110 -74 124 -126 15 -54 -1 -123 -38 -162
-23 -25 -250 -166 -256 -159 -5 6 -45 87 -45 92 0 2 44 29 98 59 54 31 106 65
117 77 27 30 25 83 -5 115 l-23 25 -314 0 -313 0 0 45 0 45 308 0 c193 0 322
-4 347 -11z m-466 -111 c9 -25 225 -786 266 -938 30 -110 102 -265 168 -364
52 -76 52 -76 35 -76 -6 0 -19 -7 -29 -16 -10 -9 -22 -13 -27 -10 -5 3 -34 43
-64 88 -113 169 -129 214 -294 789 -85 296 -154 541 -154 544 0 3 20 5 45 5
38 0 47 -4 54 -22z m-68 -148 c7 -22 10 -42 8 -44 -2 -2 -287 -54 -633 -115
-346 -61 -631 -113 -633 -115 -2 -2 75 -239 172 -526 96 -288 172 -526 169
-529 -3 -3 -22 -11 -43 -17 l-38 -11 -173 514 c-95 282 -174 513 -175 513 -2
0 -135 -210 -295 -466 -170 -272 -289 -471 -286 -480 3 -8 16 -18 28 -22 13
-5 199 -44 413 -87 215 -43 391 -79 393 -81 2 -1 -1 -22 -5 -46 l-8 -44 -461
95 c-254 53 -469 102 -478 110 -9 7 -16 23 -16 35 0 12 153 266 339 565 l339
542 -34 102 c-19 55 -34 102 -34 104 0 4 70 33 79 33 4 0 22 -48 41 -106 l34
-105 46 6 c25 4 304 53 620 110 316 56 585 103 597 104 18 1 25 -7 34 -39z
m19 -63 c0 -1 4 -16 9 -34 7 -24 6 -31 -4 -27 -8 3 -184 -218 -466 -585 -249
-325 -455 -591 -458 -591 -7 0 -345 1010 -339 1015 3 3 1216 221 1246 224 6 1
12 0 12 -2z m20 -92 c7 -9 13 -30 14 -49 1 -30 -49 -99 -419 -581 -231 -301
-423 -552 -426 -558 -5 -6 -24 -5 -57 2 l-50 12 456 595 c251 327 459 594 463
594 4 0 12 -7 19 -15z m-1086 -1114 c-5 -6 -148 31 -161 42 -7 5 -13 19 -13
31 0 69 -66 238 -131 333 -18 27 -68 82 -111 125 l-78 76 61 99 c34 54 78 123
97 153 l35 55 152 -455 c84 -250 151 -457 149 -459z m-770 633 c64 -17 116
-40 116 -52 0 -4 -7 -15 -15 -25 -13 -18 -15 -18 -70 2 -104 39 -265 44 -385
11 -192 -52 -370 -228 -433 -425 -31 -99 -31 -271 0 -370 62 -196 212 -349
412 -418 76 -27 99 -30 196 -30 85 0 126 6 180 23 140 44 263 132 340 245 37
53 56 64 83 46 18 -11 1 -43 -63 -123 -84 -107 -225 -197 -365 -235 -88 -23
-262 -23 -349 1 -300 82 -502 331 -518 637 -19 358 216 655 572 725 82 16 211
11 299 -12z m2535 5 c25 -7 83 -29 129 -50 251 -116 402 -352 402 -629 0 -320
-209 -593 -520 -676 -88 -24 -262 -24 -350 0 -249 67 -446 269 -505 518 -19
81 -19 235 1 318 34 148 138 305 259 395 61 45 68 46 79 9 5 -17 -5 -30 -55
-69 -105 -83 -185 -207 -220 -343 -65 -257 42 -531 267 -681 110 -74 210 -104
349 -104 92 0 124 5 192 27 197 64 348 217 419 426 27 78 27 282 0 360 -77
223 -237 378 -453 435 -76 21 -240 21 -317 0 -32 -8 -60 -14 -62 -13 -1 2 -5
15 -9 29 -6 24 -3 27 37 38 113 32 250 35 357 10z m-2526 -89 c37 -11 67 -24
67 -27 0 -4 -57 -98 -127 -210 -111 -179 -129 -203 -152 -203 -70 0 -137 -87
-128 -166 5 -49 37 -98 75 -118 15 -8 153 -46 307 -85 154 -40 288 -74 298
-77 15 -5 13 -11 -15 -52 -50 -74 -141 -156 -217 -196 -315 -165 -690 -46
-849 270 -44 87 -62 168 -62 274 0 177 54 305 185 436 89 89 185 144 297 169
85 20 233 13 321 -15z m2547 1 c129 -41 263 -143 335 -255 221 -349 55 -804
-340 -929 -99 -31 -261 -31 -360 0 -184 58 -325 192 -400 378 -23 58 -29 89
-33 180 -2 64 1 134 7 166 16 75 72 191 124 254 38 47 124 126 144 132 5 2 19
-29 32 -69 13 -40 42 -109 64 -153 40 -82 140 -240 157 -250 6 -4 10 -23 10
-44 0 -99 144 -118 165 -22 9 40 -10 79 -47 97 -60 28 -175 223 -232 394 -40
120 -43 113 57 136 83 19 232 12 317 -15z m-2184 -164 c25 -34 59 -88 76 -120
45 -90 85 -267 61 -267 -27 1 -53 15 -53 29 0 40 -33 142 -72 220 -31 64 -59
103 -113 157 -70 70 -71 72 -58 98 l14 27 49 -41 c27 -23 70 -69 96 -103z
m-117 12 c34 -33 79 -91 100 -127 42 -71 81 -184 81 -234 0 -27 -2 -29 -32
-23 -53 9 -392 55 -407 55 -8 0 -12 -3 -8 -6 3 -3 106 -20 229 -37 l223 -32
-1 -53 c-1 -29 -4 -55 -7 -58 -7 -7 -452 85 -455 95 -1 4 -12 25 -22 46 l-20
39 123 198 c67 108 125 197 129 198 3 0 34 -27 67 -61z m-460 -331 c-7 -13
-20 -35 -30 -50 -24 -34 -25 -90 -1 -111 10 -10 45 -22 78 -28 76 -15 83 -22
41 -43 -43 -20 -68 -20 -110 -2 -100 42 -116 168 -31 235 15 12 35 21 46 21
16 0 17 -3 7 -22z m151 -47 c15 -29 12 -41 -9 -41 -25 0 -34 14 -26 40 8 25
21 26 35 1z m2480 -11 c45 -45 14 -120 -49 -120 -31 0 -71 37 -71 65 0 62 78
97 120 55z m-1725 -11 c76 -19 85 -24 85 -44 0 -53 -5 -54 -93 -30 -93 25
-120 52 -41 41 33 -5 46 -4 39 2 -5 6 -26 12 -45 14 -24 2 -36 9 -38 21 -4 21
-9 21 93 -4z m-187 -72 l3 -58 -28 3 c-27 3 -28 6 -31 61 l-3 58 28 -3 c27 -3
28 -6 31 -61z m185 -19 c78 -21 80 -21 93 -3 8 10 14 15 14 9 -1 -5 -18 -28
-40 -52 l-39 -43 -61 12 c-33 6 -62 14 -64 18 -5 9 5 81 11 81 3 0 42 -10 86
-22z m-526 -98 c116 -24 217 -46 223 -50 18 -11 -14 -80 -37 -80 -10 0 -128
29 -263 63 l-245 64 38 18 c20 9 40 22 43 27 3 5 11 7 18 5 6 -2 106 -24 223
-47z m306 -67 c10 -16 -25 -83 -43 -83 -45 0 -51 9 -30 51 15 29 27 39 45 39
13 0 26 -3 28 -7z m180 -33 c56 -11 58 -13 78 -61 12 -27 34 -59 48 -71 21
-16 22 -19 6 -15 -11 3 -71 20 -134 36 -62 17 -115 32 -118 34 -9 9 37 96 49
92 7 -2 39 -9 71 -15z"/>
<path d="M2345 789 c-66 -44 -127 -84 -135 -89 -8 -5 -12 -11 -9 -14 5 -6 279
169 279 179 0 11 -19 0 -135 -76z"/>
<path d="M5382 1329 c-46 -88 -81 -163 -79 -165 6 -6 56 84 126 224 28 56 48
102 44 102 -5 0 -45 -73 -91 -161z"/>
<path d="M5360 853 c0 -10 236 -227 253 -231 13 -4 -125 129 -205 199 -27 22
-48 37 -48 32z"/>
<path d="M980 2490 c-11 -7 -7 -10 17 -10 17 0 35 5 38 10 8 13 -35 13 -55 0z"/>
<path d="M1105 2490 c28 -12 55 -12 55 0 0 6 -17 10 -37 9 -31 0 -34 -2 -18
-9z"/>
<path d="M1210 2480 c0 -5 6 -10 13 -10 6 0 23 -3 37 -6 17 -5 22 -3 15 3 -15
15 -65 25 -65 13z"/>
<path d="M888 2468 c-16 -5 -28 -14 -28 -18 0 -5 14 -4 30 1 17 6 30 15 30 20
0 5 -1 9 -2 8 -2 0 -15 -5 -30 -11z"/>
<path d="M1320 2452 c0 -5 16 -13 35 -19 44 -14 47 1 4 16 -38 13 -39 13 -39
3z"/>
<path d="M784 2406 c-16 -14 -24 -25 -19 -25 14 0 59 38 53 45 -3 3 -19 -6
-34 -20z"/>
<path d="M1450 2396 c28 -17 60 -22 45 -7 -6 5 -23 12 -40 16 l-30 6 25 -15z"/>
<path d="M1540 2355 c0 -2 14 -11 30 -20 17 -9 30 -11 30 -6 0 6 -9 15 -19 21
-21 11 -41 13 -41 5z"/>
<path d="M696 2325 c-9 -13 -16 -27 -16 -31 0 -10 30 17 41 38 15 27 -6 22
-25 -7z"/>
<path d="M1659 2290 c13 -11 31 -20 40 -20 10 0 6 7 -14 20 -39 26 -57 25 -26
0z"/>
<path d="M515 2255 c-52 -51 -15 -135 60 -135 46 0 85 36 85 80 0 44 -39 80
-85 80 -25 0 -44 -8 -60 -25z m103 -1 c31 -21 31 -87 0 -108 -51 -36 -108 -7
-108 54 0 42 26 70 65 70 11 0 31 -7 43 -16z"/>
<path d="M2967 2230 c-22 -36 -6 -41 17 -5 18 27 20 35 8 35 -4 0 -16 -13 -25
-30z"/>
<path d="M1750 2241 c0 -6 14 -17 30 -26 17 -9 30 -12 30 -7 0 4 -13 16 -30
25 -16 10 -30 13 -30 8z"/>
<path d="M2533 2205 c-43 -19 -73 -69 -73 -124 0 -37 6 -49 39 -82 35 -35 44
-39 88 -39 139 0 185 184 60 243 -42 20 -71 21 -114 2z m115 -19 c35 -18 56
-57 55 -102 -3 -100 -121 -148 -194 -78 -73 70 -27 194 73 194 21 0 51 -6 66
-14z"/>
<path d="M1850 2181 c0 -6 14 -17 30 -26 17 -9 30 -12 30 -7 0 4 -13 16 -30
25 -16 10 -30 13 -30 8z"/>
<path d="M2897 2142 c-19 -21 -22 -32 -8 -32 5 0 16 11 25 25 19 29 7 34 -17
7z"/>
<path d="M1950 2122 c0 -4 14 -16 30 -25 17 -10 30 -13 30 -8 0 6 -13 17 -30
26 -16 9 -30 12 -30 7z"/>
<path d="M2800 2060 c-14 -11 -20 -20 -14 -20 7 0 22 9 35 20 31 25 12 26 -21
0z"/>
<path d="M537 2063 c-10 -19 -17 -63 -8 -63 4 0 11 14 15 32 6 31 3 47 -7 31z"/>
<path d="M2050 2065 c0 -8 61 -37 67 -31 3 2 -9 12 -26 20 -31 17 -41 19 -41
11z"/>
<path d="M2165 2012 c6 -6 24 -13 40 -17 21 -4 25 -3 15 3 -24 15 -67 26 -55
14z"/>
<path d="M2272 1975 c10 -11 68 -23 68 -15 0 4 -10 10 -22 14 -29 7 -53 8 -46
1z"/>
<path d="M2390 1950 c0 -5 16 -10 36 -10 21 0 33 4 29 10 -3 6 -19 10 -36 10
-16 0 -29 -4 -29 -10z"/>
<path d="M510 1913 c0 -43 5 -41 13 5 4 18 2 32 -3 32 -6 0 -10 -16 -10 -37z"/>
<path d="M510 1805 c0 -19 4 -35 8 -35 4 0 6 16 4 35 -2 19 -6 35 -8 35 -2 0
-4 -16 -4 -35z"/>
<path d="M520 1700 c0 -14 5 -32 10 -40 8 -12 10 -10 10 10 0 14 -5 32 -10 40
-8 12 -10 10 -10 -10z"/>
<path d="M543 1579 c4 -13 7 -30 7 -37 0 -7 4 -11 9 -8 11 7 2 54 -12 63 -6 4
-8 -2 -4 -18z"/>
<path d="M570 1479 c0 -25 12 -59 20 -59 5 0 5 14 0 31 -11 36 -20 49 -20 28z"/>
<path d="M604 1345 c4 -16 12 -34 17 -40 7 -7 8 0 3 20 -3 17 -11 35 -17 40
-6 7 -7 0 -3 -20z"/>
<path d="M634 1235 c4 -16 12 -34 18 -40 7 -7 8 -1 4 20 -4 17 -12 35 -18 40
-7 7 -8 1 -4 -20z"/>
<path d="M670 1109 c11 -36 20 -49 20 -28 0 25 -12 59 -20 59 -5 0 -5 -14 0
-31z"/>
<path d="M698 1000 c2 -17 8 -33 13 -36 10 -6 11 11 3 44 -9 33 -21 27 -16 -8z"/>
<path d="M724 888 c3 -13 6 -26 6 -30 0 -5 4 -8 8 -8 5 0 7 14 4 30 -2 17 -9
30 -14 30 -6 0 -8 -10 -4 -22z"/>
<path d="M741 788 c1 -7 5 -24 9 -38 8 -24 8 -24 9 7 1 17 -3 35 -9 38 -5 3
-10 0 -9 -7z"/>
<path d="M763 645 c0 -22 2 -30 4 -17 2 12 2 30 0 40 -3 9 -5 -1 -4 -23z"/>
<path d="M763 525 c0 -22 2 -30 4 -17 2 12 2 30 0 40 -3 9 -5 -1 -4 -23z"/>
<path d="M747 427 c-4 -10 -7 -28 -7 -40 1 -20 2 -20 11 -4 6 10 9 28 7 40 -3
20 -4 20 -11 4z"/>
<path d="M721 312 c-6 -12 -11 -29 -10 -39 0 -11 6 -6 15 16 16 37 12 55 -5
23z"/>
<path d="M667 190 c-10 -16 -14 -30 -8 -30 12 0 34 37 29 51 -2 5 -11 -4 -21
-21z"/>
<path d="M590 95 c-13 -14 -19 -25 -13 -25 5 0 20 11 33 25 13 14 19 25 13 25
-5 0 -20 -11 -33 -25z"/>
<path d="M14 76 c11 -9 29 -16 40 -16 17 1 18 2 6 9 -8 5 -26 12 -40 15 -24 7
-24 6 -6 -8z"/>
<path d="M115 43 c15 -15 65 -25 65 -13 0 5 -6 10 -12 10 -7 0 -24 3 -38 6
-17 5 -22 3 -15 -3z"/>
<path d="M480 34 l-25 -15 30 6 c17 4 34 11 40 16 15 15 -17 10 -45 -7z"/>
<path d="M245 10 c28 -12 55 -12 55 0 0 6 -17 10 -37 9 -31 0 -34 -2 -18 -9z"/>
<path d="M355 10 c-4 -6 6 -10 24 -10 16 0 33 4 36 10 4 6 -6 10 -24 10 -16 0
-33 -4 -36 -10z"/>
</g>
</svg>
