<?xml version="1.0" encoding="UTF-8" standalone="no"?>
<svg
   width="1200pt"
   height="1200pt"
   version="1.1"
   viewBox="0 0 1200 1200"
   id="svg4"
   sodipodi:docname="trophy.svg"
   inkscape:version="1.2.2 (b0a8486541, 2022-12-01)"
   xmlns:inkscape="http://www.inkscape.org/namespaces/inkscape"
   xmlns:sodipodi="http://sodipodi.sourceforge.net/DTD/sodipodi-0.dtd"
   xmlns="http://www.w3.org/2000/svg"
   xmlns:svg="http://www.w3.org/2000/svg">
  <defs
     id="defs8" />
  <sodipodi:namedview
     id="namedview6"
     pagecolor="#ffffff"
     bordercolor="#000000"
     borderopacity="0.25"
     inkscape:showpageshadow="2"
     inkscape:pageopacity="0.0"
     inkscape:pagecheckerboard="0"
     inkscape:deskcolor="#d1d1d1"
     inkscape:document-units="pt"
     showgrid="false"
     inkscape:zoom="0.1475"
     inkscape:cx="803.38983"
     inkscape:cy="800"
     inkscape:window-width="1680"
     inkscape:window-height="981"
     inkscape:window-x="0"
     inkscape:window-y="32"
     inkscape:window-maximized="1"
     inkscape:current-layer="svg4" />
  <path
     d="m152.08 580.72-0.17188 0.22656c-2.1953 2.9336-5.6836 4.832-9.625 4.832-4.7891 0-8.9297-2.8203-10.855-6.8867l-48.953-83.113 20.609-12.105 28.887 49.055c9.8789-120.13 62.719-228.12 143.11-308.51 89.449-89.449 213.07-144.79 349.56-144.79 136.52 0 260.11 55.332 349.56 144.79 89.449 89.449 144.79 213.07 144.79 349.56 0 136.52-55.332 260.11-144.79 349.56-89.449 89.461-213.04 144.79-349.56 144.79-6.6172 0-12.004-5.3867-12.004-12.004s5.3867-12.004 12.004-12.004c129.88 0 247.48-52.652 332.58-137.77 85.109-85.098 137.77-202.69 137.77-332.58 0-129.87-52.652-247.46-137.77-332.58-85.098-85.109-202.69-137.77-332.58-137.77-129.87 0-247.46 52.652-332.58 137.77-77.516 77.516-128.1 181.96-136.52 298.09l40.18-47.977 18.367 15.363zm472.55-48.715c11.535 0 21.984 4.6758 29.539 12.23 7.5547 7.5547 12.23 18 12.23 29.539 0 11.535-4.6758 21.984-12.23 29.539-7.5547 7.5547-18 12.23-29.539 12.23-11.535 0-21.984-4.6758-29.539-12.23-7.5547-7.5547-12.23-18-12.23-29.539 0-11.535 4.6758-21.984 12.23-29.539 7.5547-7.5547 18-12.23 29.539-12.23zm12.559 29.211c-3.2031-3.2031-7.6523-5.2031-12.559-5.2031-4.9023 0-9.3555 2-12.559 5.2031s-5.2031 7.6523-5.2031 12.559c0 4.9023 2 9.3555 5.2031 12.559 3.2031 3.2031 7.6523 5.2031 12.559 5.2031 4.9023 0 9.3555-2 12.559-5.2031 3.2031-3.2031 5.2031-7.6523 5.2031-12.559 0-4.9023-2-9.3555-5.2031-12.559zm-0.55469-57.969c14.953 2.5234 28.316 9.6953 38.566 19.941 12.926 12.926 20.949 30.828 20.949 50.586 0 19.758-8.0234 37.645-20.949 50.57-12.926 12.926-30.812 20.949-50.57 20.949-15.422 0-29.707-4.8906-41.371-13.168l-121.51 121.51c-4.6758 4.6758-12.301 4.6758-16.98 0-4.6758-4.6758-4.6758-12.301 0-16.98l121.49-121.49c-8.293-11.664-13.168-25.965-13.168-41.387 0-19.758 8.0234-37.66 20.949-50.586 10.246-10.246 23.629-17.418 38.578-19.941v-244.7c0-6.6172 5.3867-12.004 12.004-12.004 6.6172 0 12.004 5.3867 12.004 12.004v244.7zm21.586 36.922c-8.5898-8.5898-20.48-13.918-33.59-13.918-13.125 0-25.016 5.3281-33.605 13.918s-13.918 20.48-13.918 33.605c0 13.109 5.3281 25 13.918 33.59 8.5898 8.5898 20.48 13.918 33.605 13.918 13.109 0 25-5.3281 33.59-13.918 8.5898-8.5898 13.918-20.48 13.918-33.59 0-13.125-5.3281-25.016-13.918-33.605zm-97.738 580.41c-120.84-14.102-232.03-68.059-317.48-150.17-83.48-80.207-142.46-187.33-161.97-310.48l23.613-3.7422c18.68 117.81 75.09 220.27 154.94 296.99 81.711 78.508 188.05 130.1 303.62 143.59l-2.7227 23.812zm-42.266-103.37-6.8477 25.555-23.16-6.1797 6.8477-25.555zm-111.18-42.676-13.223 22.918-20.723-11.906 13.223-22.918zm-96.281-69.918-18.707 18.707-16.98-16.98 18.707-18.707zm-74.949-92.551-22.918 13.238-11.992-20.723 22.918-13.238zm-48.445-108.72-25.555 6.8477-6.1797-23.16 25.555-6.8477z"
     id="path2"
     style="fill:#ffffff" />
</svg>
