<?xml version="1.0" standalone="no"?>
<!DOCTYPE svg PUBLIC "-//W3C//DTD SVG 20010904//EN"
 "http://www.w3.org/TR/2001/REC-SVG-20010904/DTD/svg10.dtd">
<svg version="1.0" xmlns="http://www.w3.org/2000/svg"
 width="700.000000pt" height="700.000000pt" viewBox="0 0 700.000000 700.000000"
 preserveAspectRatio="xMidYMid meet">
<metadata>
Created by potrace 1.14, written by Peter Selinger 2001-2017
</metadata>
<g transform="translate(0.000000,700.000000) scale(0.100000,-0.100000)"
fill="#000000" stroke="none">
<path d="M681 4886 c-39 -155 -74 -292 -77 -306 -3 -14 -7 -33 -10 -42 -3 -9
-7 -25 -9 -35 -2 -10 -58 -229 -124 -488 -66 -258 -156 -613 -201 -789 -44
-175 -79 -321 -76 -324 11 -10 587 -8 595 3 7 8 34 108 46 167 2 9 33 137 70
284 36 147 79 323 96 391 40 165 40 167 55 113 6 -25 39 -144 74 -265 34 -121
70 -249 80 -285 76 -278 114 -406 120 -410 10 -6 507 -6 513 0 3 4 23 77 142
525 137 515 128 487 141 447 11 -34 41 -145 49 -182 2 -8 23 -89 48 -180 25
-91 48 -178 53 -195 4 -16 8 -32 9 -35 1 -3 5 -18 10 -35 18 -69 68 -254 80
-301 l14 -50 863 1 863 2 80 27 c176 60 326 186 413 346 58 106 76 189 76 345
0 124 -3 149 -27 220 -59 178 -190 331 -354 414 -127 65 -146 67 -654 75 -198
3 -252 7 -276 19 -42 22 -59 68 -54 145 2 31 54 80 93 87 18 3 366 4 772 3
l739 -3 173 -250 c100 -144 172 -257 170 -267 -2 -9 -48 -80 -102 -158 -55
-77 -162 -230 -239 -340 -286 -408 -401 -572 -432 -620 l-32 -49 357 0 357 0
140 205 c77 113 145 211 150 217 6 7 46 65 89 130 44 64 83 117 87 117 7 0
145 -186 199 -267 8 -12 77 -108 153 -213 l138 -190 350 0 c284 0 348 2 342
13 -4 7 -51 73 -103 147 -425 597 -701 988 -711 1007 -10 19 -3 33 63 125 41
57 186 261 323 453 136 193 260 366 274 385 43 56 91 128 91 137 0 4 -157 8
-349 8 l-350 0 -212 -298 -211 -298 -82 112 c-44 61 -117 160 -161 220 -44 60
-105 142 -135 184 -42 57 -61 75 -80 76 -14 0 -338 0 -720 0 -1143 0 -1106 2
-1242 -46 -235 -82 -407 -262 -464 -485 -23 -89 -23 -273 0 -360 70 -262 255
-458 477 -506 13 -3 188 -7 389 -10 201 -3 379 -9 397 -15 77 -25 86 -190 11
-230 -28 -15 -1176 -19 -1187 -4 -5 5 -12 24 -16 40 -5 17 -9 35 -11 40 -14
55 -159 565 -173 615 -11 36 -36 126 -57 200 -20 74 -39 142 -42 150 -3 8 -6
20 -7 25 -2 6 -40 141 -86 302 l-83 292 -251 -1 -252 0 -51 -177 c-28 -97 -76
-264 -107 -371 -30 -107 -62 -215 -70 -240 -7 -25 -23 -78 -35 -118 -12 -41
-24 -72 -27 -69 -2 3 -15 45 -28 94 -27 101 -98 353 -121 430 -9 29 -17 58
-18 65 -3 13 -14 53 -46 163 -9 33 -27 97 -40 142 l-23 82 -266 -1 -267 -1
-73 -281z"/>
<path d="M455 2533 c-11 -3 -38 -16 -60 -30 -73 -46 -108 -123 -107 -236 1
-127 71 -223 180 -245 64 -14 137 -6 189 19 42 20 43 22 43 72 l0 50 -23 -21
c-69 -65 -191 -69 -255 -9 -46 43 -59 184 -24 254 49 93 170 105 280 26 l23
-16 -3 49 c-3 47 -5 50 -47 70 -43 21 -147 30 -196 17z"/>
<path d="M819 2532 l-36 -3 1 -252 1 -252 163 -1 162 -1 0 39 0 38 -120 0
-120 0 0 214 c0 118 -3 216 -7 218 -5 2 -24 2 -44 0z"/>
<path d="M1138 2532 c-21 -4 -20 13 -20 -198 0 -135 4 -179 17 -210 33 -80 79
-107 180 -107 101 0 159 36 183 113 11 32 15 150 13 326 l-1 72 -35 4 c-19 2
-39 2 -43 -1 -4 -4 -7 -82 -6 -176 1 -226 -14 -264 -103 -265 -104 0 -117 27
-118 257 -1 95 -4 176 -8 180 -9 8 -35 10 -59 5z"/>
<path d="M1619 2503 c-1 -43 -1 -460 0 -473 1 -6 50 -8 130 -6 139 3 174 14
212 66 37 50 26 144 -21 184 -27 22 -28 25 -13 38 41 34 48 118 14 164 -29 40
-77 53 -204 56 l-117 3 -1 -32z m223 -54 c53 -21 42 -104 -16 -115 -17 -3 -52
-4 -76 -2 l-45 3 0 62 0 62 55 0 c30 0 67 -5 82 -10z m20 -204 c21 -8 37 -54
31 -89 -9 -47 -55 -62 -164 -57 l-27 1 3 78 c2 42 3 78 4 80 2 4 137 -7 153
-13z"/>
<path d="M2392 2532 l-170 -2 2 -31 c1 -16 7 -33 13 -37 6 -4 45 -6 86 -6 l76
2 0 -187 c0 -102 0 -200 0 -217 1 -30 3 -31 44 -30 l42 1 0 213 c0 242 -9 221
90 220 87 0 85 -1 85 36 0 34 -1 34 -49 38 -28 1 -126 2 -219 0z"/>
<path d="M2724 2532 c-21 -3 -21 -6 -20 -255 l1 -252 43 -2 42 -3 0 105 0 105
50 0 c64 0 84 -18 139 -128 l41 -81 45 1 c24 0 43 3 42 7 -53 110 -87 173
-109 203 -27 34 -27 37 -9 43 45 14 63 113 33 185 -15 37 -77 67 -147 70 -33
1 -76 3 -95 3 -19 1 -44 1 -56 -1z m207 -101 c24 -29 24 -72 2 -100 -14 -17
-32 -22 -80 -25 l-63 -4 0 80 0 80 61 -4 c49 -4 66 -9 80 -27z"/>
<path d="M3170 2280 l0 -257 43 1 42 1 1 253 c1 250 1 252 -20 253 -11 0 -31
2 -43 3 l-23 3 0 -257z"/>
<path d="M3374 2525 c-3 -6 -3 -121 -2 -255 l3 -245 110 0 c142 1 197 16 251
70 51 52 69 116 61 218 -11 132 -86 205 -220 214 -138 8 -200 8 -203 -2z m269
-94 c87 -54 91 -242 7 -302 -34 -25 -160 -42 -187 -26 -6 4 -10 307 -4 351 2
17 148 -1 184 -23z"/>
<path d="M3892 2526 c-8 -14 -9 -468 0 -487 6 -14 30 -16 167 -16 l159 -1 4
28 c7 49 4 50 -127 50 l-124 0 2 78 2 77 105 0 c58 0 110 4 117 8 6 4 11 21
10 38 l-2 31 -118 -1 -118 0 3 62 3 62 90 2 c50 1 105 2 123 2 31 1 33 3 30
36 l-2 34 -159 3 c-92 2 -161 -1 -165 -6z"/>
<path d="M4658 2532 l-38 -3 -1 -102 c0 -56 0 -140 1 -187 1 -47 -1 -83 -3
-80 -4 5 -59 106 -153 285 l-43 80 -55 3 -56 3 0 -254 0 -255 43 2 42 1 1 177
c0 98 2 180 5 182 2 3 40 -64 83 -147 118 -228 107 -214 166 -214 31 -1 50 3
51 11 3 50 1 497 -2 499 -2 1 -21 1 -41 -1z"/>
<path d="M4750 2495 l0 -40 85 3 85 2 0 -72 c1 -40 1 -139 1 -219 l-1 -146 44
0 43 0 1 201 c1 111 1 209 2 219 0 15 9 17 73 16 39 0 78 0 85 0 7 1 12 16 12
39 l0 37 -215 0 -215 0 0 -40z"/>
<path d="M5220 2345 c0 -202 9 -245 57 -287 50 -45 169 -56 242 -23 42 19 77
67 87 121 4 21 8 114 8 205 l1 167 -42 4 c-33 2 -43 0 -44 -12 0 -8 -2 -91 -3
-185 -3 -184 -11 -220 -51 -235 -35 -13 -88 -13 -119 1 -42 20 -50 57 -50 250
l-1 177 -42 4 -43 3 0 -190z"/>
<path d="M5719 2503 c0 -41 0 -391 0 -439 l1 -41 40 0 c30 0 40 4 41 16 1 9 1
95 1 191 0 195 -4 194 63 10 21 -58 44 -110 52 -116 11 -9 72 -10 78 -2 1 2
24 64 53 138 41 109 51 128 52 100 1 -19 2 -102 3 -185 l2 -150 40 0 40 0 1
253 1 253 -59 -3 -60 -3 -39 -105 c-22 -58 -43 -114 -48 -125 -6 -11 -13 -30
-16 -42 -6 -23 -25 -32 -25 -13 0 5 -23 73 -52 150 l-51 140 -59 0 c-57 0 -58
-1 -59 -27z"/>
</g>
</svg>
