<?xml version="1.0" standalone="no"?>
<!DOCTYPE svg PUBLIC "-//W3C//DTD SVG 20010904//EN"
 "http://www.w3.org/TR/2001/REC-SVG-20010904/DTD/svg10.dtd">
<svg version="1.0" xmlns="http://www.w3.org/2000/svg"
 width="1200.000000pt" height="1200.000000pt" viewBox="0 0 1200.000000 1200.000000"
 preserveAspectRatio="xMidYMid meet">
<metadata>
Created by potrace 1.14, written by Peter Selinger 2001-2017
</metadata>
<g transform="translate(0.000000,1200.000000) scale(0.100000,-0.100000)"
fill="#000000" stroke="none">
<path d="M5828 10380 c-99 -37 -182 -112 -219 -198 -28 -63 -33 -94 -32 -175
2 -113 61 -210 194 -318 22 -19 53 -44 67 -57 15 -12 45 -35 67 -50 22 -15 42
-29 45 -32 13 -15 240 -160 249 -160 6 0 11 -4 11 -9 0 -15 32 -23 44 -11 6 6
11 19 12 28 1 18 12 98 20 142 3 14 7 39 8 55 16 149 20 189 20 252 1 40 5 73
9 73 5 0 5 4 2 10 -3 5 -7 47 -9 92 -5 107 -11 131 -53 200 -32 54 -88 108
-141 135 -81 42 -213 53 -294 23z"/>
<path d="M7216 9904 c-3 -9 1 -14 12 -15 9 0 43 -2 75 -3 43 -3 57 0 57 10 0
8 -8 14 -17 15 -10 0 -41 2 -70 4 -38 3 -53 0 -57 -11z"/>
<path d="M7079 9890 c-9 -5 -25 -11 -35 -13 -39 -8 -63 -22 -56 -34 9 -13 138
26 135 42 -3 14 -25 16 -44 5z"/>
<path d="M7454 9879 c-9 -15 4 -26 61 -49 38 -15 60 -19 66 -13 7 7 -3 16 -28
28 -21 9 -50 23 -65 30 -16 8 -30 9 -34 4z"/>
<path d="M6839 9779 c-59 -42 -62 -46 -55 -58 5 -7 29 4 67 30 33 22 57 44 54
50 -9 14 -19 11 -66 -22z"/>
<path d="M7656 9761 c-7 -11 84 -101 102 -101 20 0 14 14 -25 53 -43 45 -69
61 -77 48z"/>
<path d="M6649 9620 c-38 -37 -49 -54 -39 -60 18 -11 117 87 102 102 -7 7 -26
-5 -63 -42z"/>
<path d="M7817 9588 c-4 -13 34 -90 59 -117 26 -28 28 1 4 47 -32 61 -56 88
-63 70z"/>
<path d="M6520 9472 c-54 -66 -72 -102 -50 -102 13 0 90 102 84 112 -8 13 -18
9 -34 -10z"/>
<path d="M7924 9348 c15 -75 28 -109 39 -105 12 4 13 14 4 57 -9 44 -26 80
-38 80 -8 0 -9 -11 -5 -32z"/>
<path d="M6325 9300 c-119 -27 -178 -160 -112 -255 30 -43 56 -64 91 -74 147
-40 270 106 201 239 -36 70 -110 107 -180 90z"/>
<path d="M7969 9148 c-6 -16 -4 -129 2 -139 13 -21 20 -5 21 48 1 76 -1 93
-12 93 -5 0 -10 -1 -11 -2z"/>
<path d="M7949 8900 c-2 -13 -3 -17 -17 -65 -15 -49 -15 -65 -2 -65 12 0 35
54 43 103 4 28 2 37 -9 37 -8 0 -15 -4 -15 -10z"/>
<path d="M7884 8682 c-20 -13 -65 -104 -59 -120 4 -11 9 -9 23 9 44 59 68 132
36 111z"/>
<path d="M7713 8441 c-42 -48 -53 -71 -34 -71 16 0 91 84 91 103 0 27 -12 21
-57 -32z"/>
<path d="M7559 8296 c-14 -13 -35 -29 -47 -35 -27 -14 -31 -47 -5 -37 29 12
102 70 100 80 -6 19 -22 16 -48 -8z"/>
<path d="M4284 8280 c-12 -5 -38 -11 -60 -14 -51 -9 -164 -48 -164 -58 0 -4
-7 -5 -15 -2 -8 4 -15 1 -15 -5 0 -6 -5 -11 -10 -11 -43 0 -232 -168 -287
-256 -13 -20 -77 -146 -79 -154 0 -3 -4 -12 -8 -21 -19 -43 -42 -200 -41 -273
2 -82 19 -187 36 -218 5 -10 9 -23 9 -30 0 -24 59 -129 101 -181 120 -147 363
-356 644 -552 39 -27 72 -52 75 -55 7 -8 394 -259 466 -303 34 -20 66 -37 72
-37 24 0 36 31 47 115 3 22 10 69 16 105 15 98 17 111 24 170 4 30 9 69 12 85
3 17 7 48 9 70 2 22 6 63 9 90 5 46 11 99 19 200 17 197 23 517 12 610 -3 22
-8 60 -10 85 -19 160 -103 320 -228 434 -57 52 -208 153 -208 140 0 -4 -6 -2
-12 3 -7 6 -31 16 -53 22 -22 7 -47 15 -55 18 -8 3 -19 7 -25 7 -5 1 -37 6
-70 10 -83 12 -165 13 -172 3 -3 -5 -8 -5 -12 1 -3 5 -15 6 -27 2z"/>
<path d="M7370 8170 c-14 -11 -30 -20 -35 -20 -21 0 -57 -32 -47 -42 6 -6 32
2 71 22 50 26 59 35 50 46 -14 17 -9 18 -39 -6z"/>
<path d="M7128 8053 c-32 -14 -58 -32 -58 -39 0 -19 3 -18 71 12 33 15 59 33
59 40 0 19 -6 18 -72 -13z"/>
<path d="M6945 7943 c-53 -38 -77 -66 -62 -75 7 -4 17 -1 23 7 6 8 14 15 18
15 4 0 14 7 22 15 8 8 22 18 31 23 8 5 13 16 12 26 -4 14 -10 12 -44 -11z"/>
<path d="M6752 7763 c-43 -49 -48 -58 -33 -67 11 -7 102 94 95 105 -9 16 -18
10 -62 -38z"/>
<path d="M6626 7599 c-14 -17 -26 -34 -26 -39 0 -5 -7 -16 -16 -25 -13 -12
-14 -19 -5 -28 12 -12 25 -4 45 31 39 68 45 81 37 86 -5 4 -21 -8 -35 -25z"/>
<path d="M550 7549 c-176 -35 -337 -203 -371 -386 -13 -69 -5 -188 15 -238 8
-19 14 -37 13 -39 -1 -2 12 -25 30 -52 34 -53 79 -101 164 -177 81 -71 81 -71
124 -103 22 -16 42 -31 45 -34 3 -4 28 -22 55 -41 28 -18 51 -37 53 -41 2 -5
10 -8 17 -8 7 0 15 -4 17 -8 3 -7 130 -93 261 -176 84 -52 89 -50 102 39 3 23
7 50 9 60 4 23 17 117 21 155 2 14 6 52 10 85 4 33 9 83 10 110 2 28 4 50 5
50 1 0 3 36 5 80 2 44 4 82 5 85 1 3 1 37 0 75 -5 219 -20 280 -95 380 -111
150 -306 222 -495 184z"/>
<path d="M6519 7414 c-14 -17 -59 -107 -59 -119 0 -3 6 -5 13 -5 16 0 70 104
65 126 -3 14 -5 14 -19 -2z"/>
<path d="M6402 7168 c-10 -24 -22 -55 -25 -70 -11 -44 19 -35 34 10 6 20 14
42 18 47 10 18 12 55 2 55 -6 0 -19 -19 -29 -42z"/>
<path d="M6330 6975 c-7 -8 -10 -15 -7 -15 3 0 -3 -19 -13 -42 -23 -51 -25
-68 -7 -68 16 0 61 120 49 132 -5 5 -14 2 -22 -7z"/>
<path d="M9162 6766 c-4 -6 -32 -11 -62 -11 l-55 0 -2 -107 c-1 -60 1 -109 5
-109 4 -1 45 -2 92 -3 l84 -2 14 -49 c8 -28 16 -57 19 -65 2 -8 4 -16 4 -17 0
-2 6 -21 14 -44 8 -23 15 -43 15 -44 0 -4 -37 -12 -85 -21 -16 -2 -82 -14
-145 -26 -63 -11 -124 -22 -135 -23 -26 -4 -77 -13 -145 -26 -30 -6 -64 -12
-75 -13 -11 -2 -36 -6 -55 -10 -35 -6 -67 -12 -129 -22 -18 -3 -43 -8 -55 -10
-11 -2 -36 -7 -55 -10 -18 -3 -43 -8 -55 -10 -11 -2 -111 -20 -221 -39 -110
-19 -210 -37 -221 -39 -12 -2 -39 -7 -60 -11 -46 -7 -80 -13 -114 -20 -14 -3
-41 -8 -60 -10 -19 -3 -46 -8 -60 -12 -14 -3 -41 -7 -60 -9 -19 -1 -35 -3 -35
-4 0 -3 -32 -9 -135 -27 -19 -3 -44 -7 -55 -10 -11 -2 -36 -6 -55 -9 -19 -4
-39 -7 -45 -8 -5 -2 -30 -6 -55 -10 -65 -11 -85 -14 -85 -16 0 -1 -11 -3 -25
-4 -14 -2 -65 -10 -115 -19 -49 -9 -108 -19 -130 -22 -22 -4 -47 -8 -55 -10
-11 -4 -24 21 -50 98 -19 56 -35 105 -36 110 -1 4 -3 9 -4 12 -1 3 -3 8 -4 13
-1 4 -13 39 -26 77 -13 39 -24 73 -25 77 0 3 -3 10 -7 14 -15 14 -8 33 23 69
36 41 78 65 123 72 17 2 42 6 56 9 14 3 41 7 60 10 19 2 60 9 90 14 30 5 71
12 90 15 19 3 43 14 53 24 39 39 13 124 -51 168 -28 18 -43 21 -110 17 -42 -2
-90 -5 -107 -8 -83 -10 -176 -20 -295 -31 -41 -4 -91 -8 -110 -11 -19 -2 -111
-3 -205 -3 -235 2 -252 1 -290 -15 -77 -33 -128 -130 -105 -201 12 -35 55 -77
86 -81 21 -3 115 -24 132 -30 11 -3 9 -12 -7 -40 -23 -39 -26 -54 -10 -54 13
0 39 25 39 37 0 5 6 17 13 27 12 16 16 16 77 1 36 -9 70 -17 75 -19 6 -1 28
-7 50 -11 22 -5 43 -10 48 -11 4 -1 13 -2 21 -3 8 0 22 -22 31 -48 10 -27 21
-57 26 -68 4 -11 29 -85 55 -163 l46 -144 -28 -54 c-15 -30 -31 -54 -35 -54
-4 0 -10 -11 -13 -25 -4 -14 -11 -25 -16 -25 -6 0 -10 -4 -10 -10 0 -9 -69
-123 -90 -147 -5 -7 -10 -15 -10 -17 0 -3 -19 -36 -43 -73 -81 -127 -94 -148
-95 -157 0 -5 -4 -12 -9 -15 -8 -5 -75 -109 -126 -196 -17 -28 -29 -35 -43
-25 -6 6 -14 7 -17 3 -4 -3 -7 -1 -7 5 0 7 -8 12 -18 12 -10 0 -22 4 -28 8
-13 13 -154 63 -154 56 0 -4 -7 -1 -15 6 -8 7 -15 10 -15 7 0 -3 -15 -1 -32 4
-76 23 -127 32 -256 43 -29 3 -56 8 -61 11 -5 3 -12 1 -16 -5 -4 -7 -12 -7
-24 0 -10 5 -20 7 -23 5 -3 -3 -47 -7 -99 -10 -52 -2 -112 -7 -134 -10 -67
-11 -177 -35 -186 -41 -5 -3 -21 -8 -36 -10 -62 -11 -344 -135 -373 -164 -3
-3 -34 -25 -69 -49 -71 -49 -86 -60 -143 -111 -74 -66 -104 -96 -188 -196 -33
-38 -100 -132 -100 -140 0 -3 -9 -18 -19 -33 -35 -49 -81 -138 -74 -145 3 -3
1 -6 -5 -6 -7 0 -12 -5 -12 -10 0 -6 -9 -29 -19 -53 -17 -37 -31 -75 -37 -99
-1 -5 -3 -10 -4 -13 -1 -3 -4 -9 -5 -15 -1 -5 -3 -11 -5 -12 -2 -3 -5 -18 -14
-56 -3 -12 -7 -26 -10 -30 -2 -4 -7 -26 -10 -48 -4 -22 -9 -51 -11 -64 -19
-97 -25 -337 -11 -450 20 -162 76 -350 148 -498 23 -48 45 -89 48 -92 3 -3 21
-30 39 -60 171 -281 487 -533 797 -635 43 -14 87 -31 97 -36 11 -6 21 -8 24
-5 3 2 16 0 30 -5 14 -5 42 -12 62 -15 20 -3 43 -7 51 -10 75 -27 459 -23 561
6 17 5 34 9 38 8 22 -5 224 64 321 110 41 20 78 35 83 34 4 -1 7 2 7 7 0 5 8
11 18 15 26 9 103 56 126 77 11 11 23 19 27 19 4 0 14 6 21 13 7 6 43 37 78
67 36 30 79 69 95 86 89 95 111 121 161 192 29 42 57 82 62 87 4 6 22 40 41
76 l35 66 44 -13 c24 -8 48 -11 53 -8 5 3 9 1 9 -4 0 -5 6 -9 13 -9 6 0 50
-11 96 -23 47 -12 90 -23 95 -24 6 -2 29 -8 51 -14 22 -6 51 -13 65 -16 14 -3
45 -11 70 -17 43 -11 59 -15 70 -18 3 0 28 -7 56 -16 42 -12 203 -23 224 -15
6 2 28 7 64 14 102 19 243 164 273 280 11 41 12 176 2 208 -6 18 -12 38 -13
43 -6 22 -26 66 -35 78 -42 53 -90 103 -113 116 l-26 17 95 124 c52 69 129
170 171 225 42 55 80 102 84 103 4 2 8 8 8 14 0 5 7 17 16 26 9 9 42 50 73 91
31 42 58 78 61 81 3 3 48 61 100 130 51 69 96 127 100 130 3 3 17 21 30 40 13
19 27 37 30 40 3 3 19 23 35 45 17 22 32 42 35 45 4 3 21 26 40 53 18 26 37
47 42 47 4 0 8 4 8 10 0 5 42 63 93 129 50 65 101 131 111 146 11 14 28 36 38
48 10 12 21 27 26 32 4 6 28 37 52 70 24 33 56 76 72 95 16 19 32 40 36 45 12
17 106 139 114 150 5 6 38 48 73 95 182 239 185 242 185 199 0 -11 4 -28 10
-38 5 -10 11 -29 14 -42 3 -13 14 -55 26 -94 12 -38 23 -79 25 -89 5 -22 24
-85 32 -106 4 -8 7 -22 8 -30 1 -8 10 -42 20 -75 10 -33 18 -61 17 -62 0 -1
13 -44 28 -95 32 -105 35 -97 -51 -148 -174 -102 -362 -288 -490 -485 -56 -86
-159 -298 -159 -327 0 -8 -3 -18 -7 -22 -4 -3 -8 -12 -9 -19 -1 -7 -9 -37 -18
-67 -8 -30 -17 -66 -20 -80 -3 -14 -7 -34 -9 -45 -13 -58 -21 -164 -21 -285 0
-187 15 -288 68 -470 25 -82 64 -178 107 -256 34 -63 109 -186 119 -194 3 -3
17 -21 32 -40 14 -19 39 -49 54 -66 16 -17 46 -50 66 -73 21 -22 77 -72 125
-111 49 -38 96 -76 106 -85 9 -8 19 -15 21 -15 2 0 33 -17 67 -39 111 -67 308
-149 399 -167 14 -3 33 -7 42 -10 151 -45 487 -53 652 -14 22 5 44 7 48 4 4
-3 8 0 8 7 0 7 3 10 6 7 3 -4 20 -2 37 3 18 6 43 12 56 15 13 3 50 16 82 29
33 13 59 22 59 19 0 -2 53 23 117 57 189 98 357 229 478 374 22 26 45 53 50
59 6 6 26 34 45 61 19 28 37 52 40 55 3 3 11 16 18 30 7 14 18 34 25 45 17 28
61 109 62 115 0 3 16 41 34 85 37 89 86 272 98 367 17 132 8 402 -16 508 -5
25 -12 56 -14 70 -15 83 -101 299 -155 390 -14 25 -27 47 -27 50 0 6 -85 131
-99 146 -6 7 -27 31 -46 55 -49 60 -125 136 -195 194 -33 28 -62 52 -65 55 -3
3 -41 29 -85 57 -105 68 -308 164 -375 178 -19 4 -39 10 -45 13 -5 4 -14 7
-20 8 -5 1 -28 6 -50 12 -22 6 -56 13 -75 16 -19 3 -46 8 -60 11 -14 3 -77 8
-140 11 -137 7 -124 7 -130 5 -3 -1 -36 -4 -75 -6 -38 -3 -83 -7 -100 -9 -78
-12 -113 -18 -145 -26 -19 -5 -37 -9 -40 -9 -3 0 -32 -10 -64 -21 -33 -11 -60
-19 -61 -18 -1 2 -14 46 -29 98 -15 52 -36 124 -47 160 -30 104 -90 313 -95
335 -3 11 -7 27 -9 35 -2 8 -4 15 -5 15 -1 0 -3 7 -5 15 -2 8 -25 87 -50 175
-26 88 -53 183 -60 210 -7 28 -18 62 -24 76 -5 15 -7 30 -4 33 4 3 2 6 -3 6
-5 0 -10 8 -11 18 0 9 -15 64 -32 122 -27 91 -37 127 -44 175 -3 14 778 13
821 -1 27 -10 80 -57 83 -74 0 -3 2 -14 5 -25 19 -86 -7 -139 -91 -184 -22
-12 -47 -26 -55 -31 -31 -20 -145 -87 -155 -91 -5 -2 -47 -26 -92 -52 -94 -55
-92 -36 -19 -190 52 -108 56 -111 123 -69 104 66 286 172 294 172 5 0 9 4 9 8
0 5 15 16 33 26 17 9 42 23 55 30 34 20 102 83 102 95 0 6 4 11 8 11 11 0 59
106 68 150 17 80 -2 188 -46 265 -29 51 -100 125 -120 125 -5 0 -10 3 -10 8 0
11 -46 29 -115 46 -48 11 -153 14 -510 15 -247 1 -484 3 -525 6 -41 3 -99 7
-128 9 -32 2 -55 -1 -60 -8z m197 -711 c14 -34 38 -125 33 -125 -4 0 -16 7
-26 15 -18 13 -24 8 -82 -68 -35 -45 -67 -86 -72 -92 -4 -5 -28 -37 -52 -70
-25 -33 -47 -62 -50 -65 -3 -3 -39 -50 -80 -105 -41 -55 -77 -102 -80 -105 -3
-3 -21 -25 -40 -50 -19 -25 -38 -49 -43 -55 -4 -5 -21 -28 -38 -50 -16 -22
-35 -47 -42 -55 -7 -8 -48 -62 -92 -120 -96 -127 -88 -116 -127 -166 -18 -23
-42 -54 -53 -70 -11 -15 -29 -39 -41 -53 -11 -14 -65 -84 -120 -156 -54 -71
-103 -135 -109 -141 -5 -7 -19 -24 -30 -40 -11 -15 -41 -55 -67 -88 -26 -34
-60 -78 -75 -99 -15 -21 -35 -46 -43 -56 -8 -9 -47 -59 -86 -111 -40 -52 -79
-104 -88 -115 -9 -11 -49 -63 -88 -115 -40 -52 -76 -99 -80 -105 -17 -21 -105
-135 -135 -175 l-32 -43 -10 26 c-6 14 -53 156 -106 314 -53 158 -100 297
-105 308 -4 11 -31 92 -60 180 -28 88 -55 167 -58 175 -3 8 -7 20 -7 25 -1 6
-7 23 -13 38 -7 16 -12 33 -12 38 0 5 -4 17 -9 27 -8 14 -75 214 -282 837 -14
44 -25 81 -24 83 2 2 92 20 142 27 15 2 39 6 53 9 14 3 41 7 60 10 19 3 100
17 180 31 80 15 154 28 165 30 11 2 31 6 45 9 23 4 78 14 125 21 11 2 36 6 55
10 19 3 73 13 120 21 111 19 130 23 160 29 14 3 39 7 55 10 17 2 80 14 140 25
61 11 124 22 140 24 17 2 68 11 115 20 47 10 99 19 115 21 38 6 84 13 111 19
12 2 37 7 55 10 19 3 84 14 144 25 61 11 127 22 147 25 21 3 57 10 80 15 24 5
61 12 83 15 22 3 58 10 79 15 22 5 43 8 48 5 4 -3 15 -1 24 4 21 12 78 10 83
-3z m-2695 -690 c2 -5 6 -17 9 -25 12 -30 78 -226 81 -241 3 -9 43 -132 91
-275 48 -142 88 -263 90 -269 1 -5 5 -17 8 -25 3 -8 70 -206 148 -440 78 -234
144 -431 147 -438 2 -7 -1 -10 -9 -7 -8 2 -25 7 -39 9 -33 7 -294 76 -296 79
-1 1 -4 22 -8 47 -3 25 -8 61 -11 80 -9 56 -57 224 -68 238 -5 6 -6 12 -1 12
4 0 3 5 -4 12 -7 7 -12 18 -12 26 0 16 -107 231 -133 266 -135 187 -226 286
-354 389 l-72 57 38 58 c73 110 95 147 93 155 -1 4 2 7 8 7 6 0 10 7 10 15 0
8 5 15 10 15 6 0 10 7 10 15 0 8 5 15 10 15 6 0 10 4 10 9 0 12 82 145 92 149
5 2 8 8 8 13 0 4 23 45 52 90 l52 82 19 -54 c10 -30 20 -58 21 -64z m-1124
-569 c90 -19 190 -48 282 -85 l28 -10 -33 -51 c-17 -28 -37 -58 -42 -68 -6 -9
-106 -171 -224 -359 -192 -309 -216 -343 -240 -343 -77 -1 -182 -60 -230 -130
-99 -145 -67 -333 73 -429 38 -26 135 -64 191 -75 11 -2 128 -32 260 -66 132
-34 267 -69 300 -77 77 -19 79 -19 150 -39 60 -16 79 -21 124 -30 14 -3 29 -8
35 -11 5 -4 26 -10 45 -14 20 -4 47 -10 61 -14 14 -4 37 -9 53 -12 38 -7 40
-16 15 -60 -61 -105 -200 -259 -301 -333 -26 -19 -57 -43 -68 -52 -57 -47
-299 -153 -389 -172 -14 -3 -36 -8 -50 -11 -121 -27 -420 -26 -505 2 -11 4
-24 7 -30 8 -86 10 -376 139 -415 186 -3 3 -12 10 -21 15 -47 26 -172 141
-232 215 -86 103 -196 300 -223 399 -2 8 -11 40 -19 70 -49 178 -55 428 -14
595 47 189 129 357 246 502 50 62 156 169 193 193 12 8 28 20 34 25 10 10 75
54 121 82 20 12 106 55 115 57 3 1 14 7 25 13 29 16 185 62 233 69 23 3 55 9
70 14 32 9 332 6 382 -4z m5085 2 c11 -3 38 -9 60 -13 214 -38 452 -170 625
-345 140 -142 237 -298 296 -478 29 -88 30 -90 49 -192 14 -76 14 -344 1 -405
-4 -16 -12 -50 -17 -75 -20 -92 -111 -319 -131 -328 -5 -2 -8 -8 -8 -14 0 -24
-112 -169 -195 -252 -94 -95 -211 -179 -330 -239 -74 -36 -236 -92 -295 -102
-19 -3 -53 -9 -75 -12 -22 -4 -105 -7 -185 -7 -149 0 -251 15 -361 52 -30 11
-61 21 -69 23 -60 17 -273 139 -340 195 -60 50 -173 171 -221 236 -99 134
-191 342 -213 484 -4 21 -10 53 -13 69 -4 17 -7 98 -7 180 0 200 26 327 105
505 81 185 253 393 422 508 l47 33 10 -26 c5 -14 12 -36 14 -48 10 -47 45
-156 61 -190 9 -19 18 -41 19 -49 4 -25 116 -243 166 -323 28 -44 53 -87 57
-95 3 -8 9 -17 12 -20 3 -3 24 -32 46 -65 22 -33 59 -86 82 -119 38 -52 43
-63 39 -102 -3 -25 1 -59 9 -77 29 -69 122 -125 175 -105 14 5 26 9 28 9 31
-9 89 39 112 94 19 42 20 93 3 135 -17 40 -72 87 -109 94 -20 4 -38 16 -45 29
-7 12 -15 24 -19 27 -15 11 -165 242 -161 249 2 2 -1 7 -6 10 -25 19 -189 363
-209 441 -2 8 -17 60 -34 115 -17 55 -29 106 -28 114 4 17 62 40 145 55 13 3
26 7 30 9 5 3 30 8 58 12 27 3 51 8 53 10 6 6 323 -1 347 -7z m-4438 -335
c110 -110 128 -130 160 -180 9 -15 20 -30 23 -33 18 -17 120 -222 120 -242 0
-8 4 -18 9 -23 16 -18 59 -200 66 -281 2 -28 0 -32 -19 -29 -11 2 -43 6 -71 9
-27 4 -57 9 -65 11 -8 2 -40 7 -70 11 -30 3 -68 7 -85 9 -16 2 -41 6 -55 9
-14 2 -50 7 -81 11 -31 3 -66 7 -77 10 -11 2 -37 6 -58 9 -22 3 -55 8 -74 11
-34 6 -51 8 -155 19 -27 4 -60 8 -72 10 -15 3 -23 0 -23 -8 0 -8 16 -16 38
-20 20 -3 48 -8 62 -10 14 -2 52 -8 85 -12 33 -4 65 -8 70 -9 78 -10 155 -22
165 -25 3 -1 9 -2 14 -1 5 1 39 -2 75 -8 36 -6 80 -12 96 -15 68 -10 112 -17
140 -21 17 -3 50 -7 75 -10 93 -12 85 -1 86 -109 2 -126 -1 -139 -35 -131 -14
4 -40 9 -58 11 -18 2 -60 11 -95 19 -35 8 -79 17 -98 20 -19 3 -75 15 -125 25
-49 11 -101 21 -115 24 -14 2 -61 12 -105 21 -44 9 -89 19 -100 21 -11 2 -33
7 -50 10 -16 4 -39 8 -50 9 -37 5 -107 26 -102 32 9 9 -18 86 -46 130 l-27 43
61 97 c33 54 107 172 165 263 57 91 107 173 110 183 4 9 10 17 15 17 5 0 9 7
9 15 0 8 5 15 10 15 6 0 9 3 8 8 -1 4 18 39 43 77 25 39 51 80 58 93 6 12 18
22 25 22 8 0 63 -48 123 -107z m847 -1011 c23 -22 62 -59 89 -84 84 -79 64
-89 -111 -52 -80 17 -129 31 -126 38 3 10 12 103 13 148 1 28 86 -3 135 -50z
m265 -1 c1 -8 -2 -11 -6 -8 -3 4 -12 2 -19 -4 -11 -9 -11 -4 -4 23 6 18 10 35
11 38 1 9 18 -35 18 -49z m-1669 -97 c26 -5 51 -10 85 -17 11 -2 38 -8 60 -12
22 -5 42 -9 45 -10 7 -2 92 -19 105 -21 6 -1 12 -3 15 -4 3 -1 14 -3 25 -5 11
-2 34 -6 50 -10 17 -3 95 -19 175 -36 80 -16 156 -32 170 -35 14 -3 51 -10 83
-16 62 -13 66 -18 42 -74 -8 -19 -15 -38 -16 -42 0 -4 -10 -24 -21 -45 -13
-27 -23 -36 -31 -29 -7 5 -25 12 -42 15 -61 12 -340 83 -365 94 -8 3 -19 5
-23 4 -5 -1 -29 6 -54 14 -25 9 -48 13 -51 10 -3 -2 -10 -1 -16 4 -6 5 -25 11
-43 14 -17 3 -37 8 -43 12 -6 4 -21 8 -33 10 -12 1 -67 15 -122 30 -55 15
-107 28 -115 30 -61 13 -110 29 -110 35 0 4 13 10 30 13 32 7 110 55 110 68 0
10 31 18 50 12 8 -3 26 -7 40 -9z m1260 -260 c119 -22 226 -46 231 -52 4 -4
14 -30 23 -59 20 -61 62 -124 119 -176 23 -21 36 -36 30 -32 -7 3 -25 8 -40
10 -16 2 -71 16 -123 31 -52 14 -105 27 -117 27 -13 1 -23 4 -23 7 0 4 -6 7
-12 8 -23 1 -73 12 -98 21 -23 9 -68 21 -98 27 -24 5 -25 13 -3 59 11 24 21
48 21 52 0 4 7 27 17 51 12 32 20 41 32 37 9 -4 27 -9 41 -11z"/>
<path d="M4885 3295 c-33 -24 -66 -44 -72 -44 -7 -1 -13 -6 -13 -12 0 -5 -4
-8 -9 -5 -5 3 -11 -1 -15 -9 -3 -8 -9 -15 -14 -15 -9 0 -276 -173 -317 -205
-10 -8 -24 -15 -31 -15 -15 0 -26 -27 -15 -35 8 -4 347 208 361 226 3 3 10 8
15 10 34 13 195 126 195 137 0 21 -23 12 -85 -33z"/>
<path d="M10935 4572 c-6 -4 -44 -74 -85 -157 -41 -82 -78 -154 -83 -160 -4
-5 -37 -68 -73 -140 -36 -71 -69 -134 -74 -140 -13 -16 -16 -52 -5 -55 11 -3
56 76 47 84 -3 4 0 6 6 6 7 0 12 7 12 15 0 8 5 15 10 15 6 0 9 3 8 8 -1 4 11
32 26 62 177 342 227 444 224 456 -2 7 -8 10 -13 6z"/>
<path d="M10714 3309 c-4 -7 15 -32 48 -63 114 -106 294 -273 324 -299 17 -15
54 -50 83 -77 44 -42 71 -55 71 -35 0 7 -57 61 -165 160 -55 50 -120 110 -146
135 -150 144 -207 192 -215 179z"/>
<path d="M6263 6763 c-7 -2 -13 -13 -13 -22 0 -10 -3 -21 -7 -25 -7 -7 -10
-17 -20 -70 -8 -43 16 -29 33 19 14 40 28 106 22 104 -2 0 -9 -3 -15 -6z"/>
<path d="M2045 6594 c-5 -1 -31 -5 -57 -9 -32 -4 -48 -11 -48 -20 0 -11 10
-13 43 -8 40 5 67 9 94 12 7 0 10 7 7 14 -5 13 -17 17 -39 11z"/>
<path d="M2180 6585 c0 -8 6 -15 13 -16 6 0 38 -2 70 -5 46 -3 57 -1 57 11 0
9 -10 15 -22 16 -13 1 -44 3 -70 5 -38 3 -48 1 -48 -11z"/>
<path d="M2410 6561 c0 -13 28 -33 38 -27 6 3 29 -1 51 -9 37 -13 43 -13 48 1
7 19 5 21 -37 29 -73 13 -100 15 -100 6z"/>
<path d="M1762 6525 c-32 -15 -51 -29 -47 -35 4 -6 14 -8 24 -5 9 4 21 8 26 9
6 2 23 8 38 14 16 7 33 12 38 12 5 0 9 7 9 15 0 21 -26 18 -88 -10z"/>
<path d="M2642 6498 c6 -19 126 -60 134 -47 9 16 -5 25 -68 43 -68 19 -71 19
-66 4z"/>
<path d="M1562 6409 c-29 -22 -50 -44 -47 -50 9 -14 17 -11 49 16 16 14 33 25
37 25 14 0 39 31 34 41 -9 14 -17 11 -73 -32z"/>
<path d="M2866 6421 c-5 -8 32 -49 40 -43 2 1 20 -5 40 -13 78 -32 72 -2 -7
37 -61 30 -66 31 -73 19z"/>
<path d="M3080 6314 c0 -8 8 -18 18 -21 9 -4 19 -9 22 -12 14 -17 80 -39 86
-30 3 6 4 11 3 13 -19 14 -107 61 -116 62 -7 1 -13 -4 -13 -12z"/>
<path d="M1396 6248 c-32 -36 -43 -55 -36 -62 11 -11 68 43 90 84 22 40 -10
28 -54 -22z"/>
<path d="M3287 6204 c-9 -9 11 -26 58 -49 22 -11 43 -24 48 -30 4 -6 11 -5 16
5 6 8 9 15 8 16 -10 9 -110 64 -116 64 -4 0 -10 -3 -14 -6z"/>
<path d="M1115 6161 c-47 -12 -72 -28 -102 -67 -35 -46 -39 -130 -9 -186 40
-74 154 -104 228 -61 37 22 87 89 83 112 -1 9 1 23 6 32 5 9 5 20 1 24 -4 3
-7 10 -7 13 -7 84 -112 154 -200 133z"/>
<path d="M5936 6055 c-20 -30 -36 -57 -36 -60 0 -3 9 -5 21 -5 11 0 18 4 15 9
-4 5 -2 11 2 13 14 5 61 85 55 92 -13 12 -21 5 -57 -49z"/>
<path d="M3490 6080 c0 -11 70 -60 86 -60 7 0 14 -5 16 -12 2 -6 10 -8 17 -4
17 11 1 28 -54 61 -46 27 -65 31 -65 15z"/>
<path d="M5127 6028 c-150 -32 -236 -171 -203 -329 19 -89 133 -185 228 -190
52 -3 138 10 138 21 0 5 8 11 18 14 49 16 113 102 127 171 3 17 7 37 9 45 5
23 -13 92 -35 134 -52 100 -172 158 -282 134z"/>
<path d="M3697 5964 c-13 -13 -7 -19 31 -39 20 -11 39 -23 42 -26 3 -3 15 -9
28 -13 16 -6 22 -3 22 8 0 13 -39 38 -111 74 -3 1 -8 -1 -12 -4z"/>
<path d="M5830 5906 c-44 -35 -83 -87 -74 -96 7 -7 27 7 59 40 31 31 46 53 40
59 -6 6 -16 5 -25 -3z"/>
<path d="M3900 5836 c0 -14 77 -63 107 -68 39 -7 18 21 -38 50 -69 37 -69 37
-69 18z"/>
<path d="M5644 5743 c-16 -9 -41 -22 -56 -30 -25 -13 -39 -43 -20 -43 11 0
110 58 116 69 11 18 -10 20 -40 4z"/>
<path d="M1085 5732 c-10 -6 -21 -38 -40 -109 -3 -12 -1 -24 4 -27 10 -7 33
27 36 54 1 8 5 27 9 42 9 32 5 50 -9 40z"/>
<path d="M4107 5725 c-4 -8 6 -18 26 -26 18 -7 38 -17 46 -23 18 -14 61 -19
61 -7 0 10 -55 42 -104 61 -18 6 -26 5 -29 -5z"/>
<path d="M4324 5629 c-9 -15 -3 -18 70 -45 50 -18 66 -20 66 -10 0 11 -28 26
-107 57 -14 5 -25 4 -29 -2z"/>
<path d="M4546 5547 c6 -18 52 -33 118 -40 41 -4 24 21 -21 33 -85 22 -103 23
-97 7z"/>
<path d="M4786 5512 c-13 -12 -5 -28 17 -30 12 -1 38 -4 58 -6 20 -2 42 0 49
4 21 13 3 27 -32 25 -18 -1 -45 2 -60 6 -14 4 -29 5 -32 1z"/>
<path d="M1023 5482 c-14 -45 -10 -117 6 -117 10 0 15 16 18 55 1 30 5 60 7
67 3 6 -1 14 -9 17 -8 3 -17 -5 -22 -22z"/>
<path d="M1023 5268 c-10 -13 -9 -109 2 -136 3 -7 9 -10 15 -7 10 6 8 140 -2
150 -3 3 -10 0 -15 -7z"/>
<path d="M1039 5023 c-2 -9 -2 -5 6 -69 4 -27 11 -53 15 -58 10 -10 32 2 25
15 -6 9 -16 72 -16 102 0 16 -28 25 -30 10z"/>
<path d="M1077 4794 c-3 -4 -3 -12 0 -18 4 -6 8 -18 10 -26 8 -56 15 -80 28
-90 13 -10 15 -8 15 11 0 13 -6 46 -13 73 -12 48 -26 64 -40 50z"/>
<path d="M1137 4563 c-8 -15 26 -132 41 -138 12 -4 13 2 8 32 -14 89 -34 132
-49 106z"/>
<path d="M1200 4323 c0 -31 30 -123 40 -123 18 0 18 18 1 75 -18 58 -41 85
-41 48z"/>
<path d="M1260 4104 c0 -19 35 -134 42 -134 17 0 18 24 2 80 -10 36 -22 60
-30 60 -8 0 -14 -3 -14 -6z"/>
<path d="M1330 3852 c0 -16 3 -32 8 -36 4 -4 7 -11 7 -14 1 -4 4 -19 8 -34 9
-34 38 -39 31 -5 -3 12 -9 38 -13 58 -13 63 -41 83 -41 31z"/>
<path d="M1390 3629 c0 -38 32 -119 47 -119 8 0 13 6 10 13 -2 6 -10 38 -17
70 -8 35 -18 57 -27 57 -7 0 -13 -9 -13 -21z"/>
<path d="M1447 3413 c-2 -5 -3 -12 -2 -18 1 -5 5 -34 10 -62 5 -37 12 -53 22
-53 12 0 14 9 10 43 -10 81 -26 117 -40 90z"/>
<path d="M1487 3177 c-3 -7 -1 -33 3 -58 5 -24 6 -47 4 -50 -2 -4 3 -12 10
-18 25 -21 29 15 11 99 -2 8 -4 21 -4 28 -1 16 -18 16 -24 -1z"/>
<path d="M1515 2938 c-2 -7 -3 -38 -2 -68 2 -41 6 -55 17 -55 15 0 16 10 11
108 -1 27 -18 37 -26 15z"/>
<path d="M1519 2712 c-1 -4 -2 -37 -4 -74 -1 -52 1 -68 12 -68 7 0 13 8 14 18
0 9 3 40 5 69 3 38 0 52 -11 57 -8 3 -15 2 -16 -2z"/>
<path d="M1499 2478 c0 -2 -2 -19 -5 -38 -2 -19 -8 -49 -13 -67 -6 -20 -6 -33
0 -33 5 0 12 -1 16 -2 3 -2 7 4 9 12 1 8 7 37 12 65 6 27 8 53 6 57 -5 7 -23
11 -25 6z"/>
<path d="M1449 2246 c-1 -3 -2 -9 -3 -13 -1 -5 -10 -32 -20 -61 -19 -56 -16
-73 8 -53 12 10 36 84 37 116 1 10 -20 21 -22 11z"/>
<path d="M1356 2009 c-9 -13 -16 -27 -16 -32 0 -5 -9 -20 -20 -35 -15 -18 -18
-28 -10 -36 13 -13 30 6 62 68 23 45 11 73 -16 35z"/>
<path d="M1194 1795 c-22 -19 -42 -35 -46 -35 -5 0 -8 -7 -8 -15 0 -8 6 -15
13 -15 13 1 107 81 107 93 0 17 -31 5 -66 -28z"/>
<path d="M0 1760 c0 -12 100 -60 124 -60 9 0 16 7 16 15 0 8 -7 15 -15 15 -9
0 -33 9 -55 20 -43 22 -70 26 -70 10z"/>
<path d="M1040 1692 c-73 -24 -120 -45 -120 -53 0 -20 82 0 130 32 24 16 17
30 -10 21z"/>
<path d="M225 1681 c-7 -12 -1 -16 64 -35 65 -19 84 -20 79 -4 -2 6 -29 19
-59 29 -62 21 -76 23 -84 10z"/>
<path d="M456 1624 c-3 -8 8 -15 32 -19 78 -13 102 -14 108 -4 8 14 3 18 -37
24 -79 12 -98 12 -103 -1z"/>
<path d="M714 1620 c-11 -3 -20 -11 -22 -18 -2 -11 11 -13 62 -9 66 5 86 11
86 27 0 8 -94 9 -126 0z"/>
</g>
</svg>
